<svg width="101" height="78" viewBox="0 0 101 78" fill="none" xmlns="http://www.w3.org/2000/svg">
<path d="M6.91889 77.6338C3.1879 77.6338 0.389648 74.8783 0.389648 71.2042C0.389648 67.4154 3.1879 64.7746 6.91889 64.7746C10.6499 64.7746 13.5647 67.4154 13.5647 71.2042C13.5647 74.8783 10.6499 77.6338 6.91889 77.6338Z" fill="white"/>
<path d="M38.2443 77.7486C26.1186 77.7486 19.123 69.5968 18.7732 59.4932C18.7732 58.5747 19.123 57.771 20.4055 57.771H27.1679C27.9841 57.771 28.6836 58.1154 28.8002 59.2636C29.2666 65.1191 32.0649 68.3339 38.1277 68.3339C43.491 68.3339 46.2893 65.3487 46.2893 61.2154C46.2893 49.6192 19.4727 52.7192 19.4727 33.8897C19.4727 24.7045 26.585 17.8157 37.0784 17.8157C49.5539 17.8157 55.0338 25.7379 55.3836 34.6934C55.3836 35.4971 55.0338 36.3008 53.8679 36.3008H46.9889C46.0561 36.3008 45.4731 35.7267 45.3565 34.8082C45.0068 30.3304 42.3251 27.1156 37.3116 27.1156C32.5312 27.1156 29.3832 29.986 29.3832 34.1193C29.3832 45.1414 56.3163 42.0415 56.3163 61.3302C56.3163 70.6302 49.0875 77.7486 38.2443 77.7486Z" fill="white"/>
<path d="M71.3269 11.8454C67.8291 11.8454 65.3806 9.31946 65.3806 5.98986C65.3806 2.54543 67.8291 0.0195312 71.3269 0.0195312C74.7081 0.0195312 77.3897 2.54543 77.3897 5.98986C77.3897 9.08984 74.7081 11.8454 71.3269 11.8454ZM68.0622 76.4857C67.0129 76.4857 66.4299 75.9116 66.4299 74.8783V20.5712C66.4299 19.6527 67.0129 19.0787 68.0622 19.0787H74.8247C75.874 19.0787 76.457 19.6527 76.457 20.5712V74.8783C76.457 75.9116 75.874 76.4857 74.8247 76.4857H68.0622Z" fill="white"/>
<path d="M94.3268 11.8454C90.829 11.8454 88.3805 9.31946 88.3805 5.98986C88.3805 2.54543 90.829 0.0195312 94.3268 0.0195312C97.708 0.0195312 100.39 2.54543 100.39 5.98986C100.39 9.08984 97.708 11.8454 94.3268 11.8454ZM91.0622 76.4857C90.0128 76.4857 89.4298 75.9116 89.4298 74.8783V20.5712C89.4298 19.6527 90.0128 19.0787 91.0622 19.0787H97.8246C98.8739 19.0787 99.4569 19.6527 99.4569 20.5712V74.8783C99.4569 75.9116 98.8739 76.4857 97.8246 76.4857H91.0622Z" fill="white"/>
</svg>
