<svg width="196" height="196" viewBox="0 0 196 196" fill="none" xmlns="http://www.w3.org/2000/svg">
<path d="M0 16C0 7.16345 7.16344 0 16 0H180C188.837 0 196 7.16344 196 16V180C196 188.837 188.837 196 180 196H16C7.16345 196 0 188.837 0 180V16Z" fill="#222A2F"/>
<path d="M30.1856 158.82C24.3653 158.82 20 154.495 20 148.728C20 142.781 24.3653 138.637 30.1856 138.637C36.006 138.637 40.5531 142.781 40.5531 148.728C40.5531 154.495 36.006 158.82 30.1856 158.82Z" fill="white"/>
<path d="M79.0533 159C60.1371 159 49.224 146.205 48.6783 130.347C48.6783 128.905 49.224 127.644 51.2247 127.644H61.7741C63.0473 127.644 64.1386 128.185 64.3205 129.987C65.0481 139.177 69.4133 144.223 78.8714 144.223C87.2382 144.223 91.6034 139.538 91.6034 133.05C91.6034 114.849 49.7696 119.715 49.7696 90.161C49.7696 75.7445 60.8647 64.932 77.2344 64.932C96.6962 64.932 105.245 77.3663 105.791 91.4224C105.791 92.6839 105.245 93.9453 103.426 93.9453H92.6948C91.2397 93.9453 90.3302 93.0443 90.1484 91.6027C89.6027 84.5746 85.4193 79.5288 77.5982 79.5288C70.1409 79.5288 65.23 84.034 65.23 90.5214C65.23 107.821 107.246 102.956 107.246 133.23C107.246 147.827 95.9687 159 79.0533 159Z" fill="white"/>
<path d="M130.662 55.5613C125.205 55.5613 121.386 51.5967 121.386 46.3708C121.386 40.9645 125.205 37 130.662 37C135.937 37 140.12 40.9645 140.12 46.3708C140.12 51.2363 135.937 55.5613 130.662 55.5613ZM125.569 157.018C123.932 157.018 123.023 156.117 123.023 154.495V69.257C123.023 67.8154 123.932 66.9143 125.569 66.9143H136.119C137.756 66.9143 138.665 67.8154 138.665 69.257V154.495C138.665 156.117 137.756 157.018 136.119 157.018H125.569Z" fill="white"/>
<path d="M166.542 55.5613C161.085 55.5613 157.266 51.5967 157.266 46.3708C157.266 40.9645 161.085 37 166.542 37C171.817 37 176 40.9645 176 46.3708C176 51.2363 171.817 55.5613 166.542 55.5613ZM161.449 157.018C159.812 157.018 158.903 156.117 158.903 154.495V69.257C158.903 67.8154 159.812 66.9143 161.449 66.9143H171.999C173.635 66.9143 174.545 67.8154 174.545 69.257V154.495C174.545 156.117 173.635 157.018 171.999 157.018H161.449Z" fill="white"/>
</svg>
